<svg width="136" height="55" viewBox="0 0 136 55" fill="none" xmlns="http://www.w3.org/2000/svg">
<path fill-rule="evenodd" clip-rule="evenodd" d="M25.542 1.6665L25.7567 3.1915C18.9027 17.0538 27.6427 15.9253 27.6427 15.9253L28.7467 15.727L28.9153 16.0625C45.1533 14.2325 54.0313 22.6353 54.0313 22.6353C55.212 2.74925 25.542 1.6665 25.542 1.6665Z" fill="#F8B829"/>
<path d="M15.3453 48.4993C14.6553 53.0743 18.412 55.7277 19.01 54.2637C20.666 52.1135 21.2486 52.7387 22.0767 49.5057C22.3789 49.1043 22.729 48.7407 23.1193 48.423C23.9575 47.5588 24.7651 46.6743 25.542 45.7695C27.8335 43.1914 29.7909 40.3377 31.3687 37.2752C33.1191 34.1831 33.7573 30.5898 33.178 27.0883C32.5508 25.317 31.6564 23.6509 30.5253 22.1472C30.18 21.36 30.0226 20.504 30.0653 19.6462C30.0273 18.3631 29.6405 17.1141 28.946 16.032C28.5874 15.6475 28.3147 15.1919 28.1455 14.6952C27.9764 14.1985 27.9148 13.6718 27.9647 13.1498C28.164 11.9908 28.164 10.847 28.3326 9.688C28.4389 7.52229 28.04 5.36148 27.1673 3.3745C27.1673 3.3745 26.094 1.4835 25.1433 1.95625C23.4507 0.890402 21.4834 0.336026 19.4802 0.360389C17.477 0.384752 15.5239 0.986806 13.858 2.0935C13.858 2.0935 -8.09935 16.0473 11.696 42.8568C11.098 46.3338 13.2293 49.9175 14.8853 52.2965" fill="#005D86"/>
<path d="M25.45 17.8926L22.4753 4.41157C22.4753 4.41157 20.7273 -0.77343 16.1273 5.76882L15.3607 4.76232C11.1287 10.7251 5.39398 17.8773 6.66665 25.6243C6.85176 27.0543 7.34827 28.4268 8.12156 29.6463C8.89485 30.8658 9.9263 31.9028 11.144 32.6851C12.9384 33.9244 15.1108 34.5033 17.2878 34.3225C19.4649 34.1416 21.5106 33.2121 23.0733 31.6938C25.4653 29.7113 27.4126 25.6853 25.45 17.8926Z" fill="white"/>
<path fill-rule="evenodd" clip-rule="evenodd" d="M28.9153 16.1083C28.9153 16.1083 43.114 13.9123 54.0313 22.681C54.0313 22.681 43.758 9.27627 27.382 11.762C27.3973 11.762 26.2167 15.056 28.9153 16.1083Z" fill="#F19320"/>
<path d="M54.0313 22.6811C54.3199 19.222 53.4404 15.766 51.532 12.86C51.3786 12.6618 50.198 15.2238 50.1826 15.4526C50.1199 16.5211 50.3817 17.5838 50.934 18.5026C51.716 19.9361 53.6173 21.1103 54.0006 22.6505" fill="#E95253"/>
<path d="M0.533325 42.0486C2.54029 42.8082 4.7302 42.9516 6.81999 42.4603C9.74866 42.8568 11.282 43.7718 14.778 44.1683C19.056 44.1683 23.3033 43.7108 27.5507 43.3143C28.9307 43.1923 31.9973 43.0246 33.1627 44.1073C33.8373 44.7326 33.638 46.4253 33.6533 47.3098C31.1186 46.3486 28.4498 45.7828 25.7413 45.6323C22.6747 45.6323 19.5007 45.7696 16.388 45.7391C14.2648 45.7453 12.1454 45.5616 10.0553 45.1901C8.10799 44.8241 6.19133 44.3208 4.24399 43.9243C2.83333 43.6193 1.11599 43.3753 0.533325 42.0486Z" fill="#9B5F48"/>
<path d="M27.8727 44.7935C27.8727 45.2815 27.4433 46.3185 27.0447 46.3185C26.646 46.3185 26.2167 45.2967 26.2167 44.7935V43.0702C26.2167 42.5822 26.5233 42.0942 26.922 42.0942C27.1631 42.1309 27.3849 42.247 27.5517 42.424C27.7185 42.601 27.8208 42.8286 27.842 43.0702L27.8727 44.7935Z" fill="#969595"/>
<path d="M26.2167 45.0375C26.2167 45.4187 25.91 46.2117 25.588 46.2117C25.266 46.2117 24.9594 45.4187 24.9594 45.0375V43.6802C24.9594 43.299 25.1894 42.9177 25.5114 42.9177C25.6957 42.9462 25.8643 43.0381 25.9875 43.1774C26.1108 43.3168 26.181 43.4947 26.186 43.6802L26.2167 45.0375Z" fill="#838383"/>
<path d="M11.006 44.7935C11.006 45.2815 11.4353 46.3185 11.834 46.3185C12.2326 46.3185 12.662 45.2967 12.662 44.7935V43.0702C12.662 42.5822 12.3553 42.0942 11.9566 42.0942C11.7155 42.1309 11.4938 42.247 11.327 42.424C11.1601 42.601 11.0579 42.8286 11.0366 43.0702L11.006 44.7935Z" fill="#969595"/>
<path d="M12.662 45.0375C12.662 45.4187 12.9687 46.2117 13.2907 46.2117C13.6127 46.2117 13.9193 45.4187 13.9193 45.0375V43.6802C13.9193 43.299 13.6893 42.9177 13.3673 42.9177C13.1829 42.9462 13.0144 43.0381 12.8911 43.1774C12.7679 43.3168 12.6976 43.4947 12.6927 43.6802L12.662 45.0375Z" fill="#838383"/>
<path d="M28.578 11.4571C28.946 10.5878 29.6207 7.8886 27.75 3.23735C27.4127 2.5206 26.5693 0.858346 24.7753 1.71235C24.5147 2.10885 28.0107 4.2896 27.29 11.9756C27.29 11.9756 26.3853 15.1933 28.9153 16.0931C28.5388 15.3019 28.345 14.4369 28.348 13.5616C28.2944 12.852 28.3724 12.1387 28.578 11.4571ZM28.4093 11.7621C28.4093 11.7621 28.4093 11.7621 28.4247 11.7621H28.4093Z" fill="#003B55"/>
<path d="M25.542 8.62048C26.2166 12.2195 24.4073 14.263 20.8193 14.3087C18.0593 14.3087 14.042 13.7292 13.6587 10.3742C13.3367 7.46148 15.192 3.51173 18.1667 2.62723C22.2913 1.37673 24.898 5.08248 25.5573 8.62048H25.542Z" fill="#F8B829"/>
<path d="M23.3493 8.36113C23.4909 8.78469 23.5208 9.23731 23.4361 9.67566C23.3515 10.114 23.1551 10.5234 22.8659 10.8647C22.5766 11.2059 22.2041 11.4676 21.784 11.6247C21.3639 11.7818 20.9103 11.829 20.4666 11.7619C18.7186 11.7619 16.2806 11.3501 16.1273 9.23038C16.0452 8.26624 16.2726 7.30105 16.7768 6.47353C17.281 5.64602 18.036 4.99879 18.9333 4.62488C21.402 3.93863 22.9353 6.14988 23.3033 8.30013L23.3493 8.36113Z" fill="#005D86"/>
<path fill-rule="evenodd" clip-rule="evenodd" d="M22 7.90386C22 8.47212 21.773 9.0171 21.369 9.41892C20.965 9.82074 20.417 10.0465 19.8457 10.0465C19.2743 10.0465 18.7264 9.82074 18.3223 9.41892C17.9183 9.0171 17.6913 8.47212 17.6913 7.90386C17.6913 7.3356 17.9183 6.79061 18.3223 6.38879C18.7264 5.98697 19.2743 5.76123 19.8457 5.76123C20.417 5.76123 20.965 5.98697 21.369 6.38879C21.773 6.79061 22 7.3356 22 7.90386Z" fill="#151410"/>
<path fill-rule="evenodd" clip-rule="evenodd" d="M20.1446 6.54658C20.1446 6.92783 19.8073 6.54658 19.8073 6.54658C19.8073 6.54658 20.1446 6.15008 20.1446 6.54658Z" fill="white"/>
<path fill-rule="evenodd" clip-rule="evenodd" d="M18.9333 6.5314C18.7186 6.5314 18.6726 6.76015 18.642 7.00415C18.5842 7.02604 18.532 7.06054 18.4894 7.10511C18.4467 7.14968 18.4146 7.20319 18.3955 7.26171C18.3764 7.32022 18.3707 7.38226 18.3789 7.44325C18.387 7.50424 18.4088 7.56264 18.4426 7.61415C18.4426 7.61415 19.4853 6.63815 19.562 6.69915C19.4749 6.62879 19.374 6.57748 19.2656 6.54857C19.1573 6.51966 19.0441 6.51382 18.9333 6.5314Z" fill="white"/>
<path d="M53.2033 41.7131C53.3242 41.7103 53.4442 41.7333 53.5553 41.7807C53.6665 41.8281 53.766 41.8986 53.8473 41.9876L55.6567 43.9091C52.912 47.3861 47.6527 48.1639 43.6353 46.6846C41.6383 45.8725 39.9337 44.4807 38.7439 42.6907C37.5541 40.9007 36.9343 38.7957 36.9653 36.6501C36.8002 34.4764 37.2858 32.3026 38.3609 30.4029C39.436 28.5032 41.0525 26.9626 43.0067 25.9751C45.0232 25.0417 47.2722 24.7217 49.471 25.0555C51.6698 25.3892 53.7205 26.3617 55.3653 27.8509L53.832 29.9249C53.004 31.1144 51.7313 29.8029 50.8727 29.3911C49.5987 28.8071 48.1782 28.6159 46.794 28.8421C45.3732 29.1344 44.0938 29.8964 43.1638 31.004C42.2339 32.1116 41.7084 33.4996 41.6727 34.9421C41.4469 36.309 41.5794 37.7107 42.0576 39.0117C42.5357 40.3127 43.3432 41.469 44.402 42.3689C45.6119 43.175 47.052 43.5691 48.5062 43.4921C49.9604 43.4151 51.3503 42.8712 52.4673 41.9419C52.68 41.7858 52.9392 41.7053 53.2033 41.7131Z" fill="white"/>
<path d="M61.8666 24.6177V47.0962H57.65V24.6177H61.8666Z" fill="white"/>
<path d="M69.6253 31.5566V47.1116H65.4547V31.5566H69.6253Z" fill="white"/>
<path d="M70.1313 27.0426C70.1313 30.2908 64.9487 30.3061 64.9487 27.0426C64.9487 23.7791 70.1313 23.7791 70.1313 27.0426Z" fill="white"/>
<path d="M84.5446 35.0184C83.8853 35.9029 83.18 35.3539 82.444 35.0184C81.5367 34.5089 80.4754 34.3411 79.454 34.5457C77.338 35.0184 76.7246 37.1687 76.6633 39.1207C76.602 41.0727 77.016 43.2992 78.948 44.0769C79.4403 44.264 79.9654 44.3509 80.4922 44.3326C81.0189 44.3143 81.5366 44.191 82.0146 43.9702C82.766 43.6194 83.8393 42.2927 84.6213 43.3144L85.8173 44.8394C84.7368 45.9777 83.3498 46.7828 81.8218 47.1587C80.2939 47.5346 78.6894 47.4653 77.2 46.9592C75.7319 46.3718 74.4826 45.3472 73.6233 44.0257C72.764 42.7042 72.337 41.1506 72.4006 39.5782C72.2575 37.9727 72.6244 36.3631 73.4496 34.9761C74.2749 33.589 75.5169 32.4944 77.0006 31.8464C78.46 31.2867 80.05 31.1544 81.5826 31.4652C83.1151 31.776 84.5261 32.5169 85.6486 33.6002L84.5446 35.0184Z" fill="white"/>
<path d="M92.0733 24.6177V37.3819H92.7633C92.9732 37.3918 93.1821 37.348 93.3701 37.2545C93.558 37.161 93.7187 37.0211 93.8366 36.8482L97.2866 32.2732C97.4455 32.0498 97.6574 31.8689 97.9035 31.7465C98.1496 31.6242 98.4223 31.5641 98.6973 31.5717H102.515L98.0533 37.2142C97.7239 37.6636 97.3067 38.0422 96.8266 38.3274C97.2783 38.6693 97.6541 39.1002 97.9306 39.5932L102.761 47.0809H99.004C98.7255 47.1005 98.4469 47.0441 98.1983 46.9178C97.9498 46.7915 97.7406 46.6 97.5933 46.3642L94.0666 40.6607C93.9603 40.4633 93.7966 40.3025 93.5969 40.1991C93.3972 40.0957 93.1708 40.0546 92.9473 40.0812H92.0733V47.0962H87.9333V24.6177H92.0733Z" fill="white"/>
<path d="M108.618 24.6177V37.3819H109.308C109.518 37.3918 109.727 37.348 109.915 37.2545C110.103 37.161 110.263 37.0211 110.381 36.8482L113.831 32.2732C113.99 32.0498 114.202 31.8689 114.448 31.7465C114.694 31.6242 114.967 31.5641 115.242 31.5717H119.06L114.567 37.2447C114.238 37.6941 113.821 38.0727 113.341 38.3579C113.792 38.6998 114.168 39.1307 114.445 39.6237L119.275 47.1114H115.533C115.255 47.131 114.976 47.0746 114.728 46.9483C114.479 46.8219 114.27 46.6305 114.123 46.3947L110.611 40.6759C110.505 40.4786 110.341 40.3177 110.142 40.2143C109.942 40.111 109.716 40.0699 109.492 40.0964H108.618V47.1114H104.432V24.6177H108.618Z" fill="white"/>
<path d="M127.033 51.2749C126.926 51.5415 126.736 51.7669 126.49 51.9178C126.244 52.0688 125.956 52.1374 125.669 52.1136H122.602L125.515 45.8001L119.244 31.4956H122.909C123.157 31.4843 123.402 31.5502 123.611 31.6842C123.82 31.8181 123.982 32.0134 124.074 32.2429L127.049 39.7001C127.263 40.2898 127.447 40.8795 127.601 41.4691C127.785 40.8744 127.999 40.2796 128.229 39.6849L130.989 32.2581C131.081 32.0349 131.239 31.8443 131.441 31.711C131.643 31.5778 131.881 31.5081 132.124 31.5109H135.467L127.033 51.2749Z" fill="white"/>
</svg>
