<svg width="956" height="143" viewBox="0 0 956 143" fill="none" xmlns="http://www.w3.org/2000/svg">
<g opacity="0.8" filter="url(#filter0_d)">
<path d="M45.2188 16.7812H30.7812V84H45.2188V64.7812L53.8438 55.2188L73.5312 84H90.3125L63.4531 44.625L88.3906 16.7812H71.6094L45.2188 46.0781V16.7812ZM173 50.4375C173 44.25 175.062 39 179.281 34.7344C183.453 30.4688 188.562 28.3125 194.562 28.3125C200.562 28.3125 205.672 30.4688 209.844 34.7344C214.062 39 216.125 44.25 216.125 50.4375C216.125 56.625 214.062 61.875 209.844 66.0938C205.672 70.3594 200.562 72.4688 194.562 72.4688C188.562 72.4688 183.453 70.3594 179.281 66.0938C175.062 61.875 173 56.625 173 50.4375ZM158.094 50.3906C158.094 60.0469 161.609 68.3438 168.641 75.1875C175.672 82.0312 184.344 85.4531 194.562 85.4531C204.781 85.4531 213.453 82.0312 220.484 75.1875C227.516 68.3438 231.031 60.0469 231.031 50.3906C231.031 40.7344 227.516 32.4844 220.484 25.6406C213.453 18.7969 204.781 15.375 194.562 15.375C184.344 15.375 175.672 18.7969 168.641 25.6406C161.609 32.4844 158.094 40.7344 158.094 50.3906ZM343.531 46.0781L320.516 16.7812H307.531V84H321.969V39.375L343.531 66.7031L365.141 39.1875V84H379.531V16.7812H366.781L343.531 46.0781ZM494.375 55.6875H478.016L486.219 33.6094L494.375 55.6875ZM499.156 68.1562L504.922 84H520.297L493.859 16.7812H478.531L452.094 84H467.469L473.234 68.1562H499.156ZM650.516 16.7812H636.125V43.6875H607.344V16.7812H592.906V84H607.344V56.625H636.125V84H650.516V16.7812ZM722.188 71.0625V97.9219H736.578V84H776.891V97.9219H791.328V71.0625H783.125V16.7812H736.578V37.4531C736.578 41.9531 736.156 46.1719 735.406 50.1562C734.656 54.1875 733.812 57.3281 732.875 59.6719C731.938 62.0156 730.906 64.1719 729.688 66.1406C728.469 68.1094 727.578 69.3281 727.109 69.8906C726.641 70.4531 726.266 70.8281 726.031 71.0625H722.188ZM750.969 37.4531V29.7656H768.734V71.0625H740.422L741.594 69.8906C742.25 69.1406 743.141 67.8281 744.172 66.0469C745.203 64.2656 746.188 62.1562 747.219 59.7188C748.25 57.2812 749.094 54.0938 749.844 50.1094C750.594 46.1719 750.969 41.9531 750.969 37.4531ZM899.938 55.6875H883.578L891.781 33.6094L899.938 55.6875ZM904.719 68.1562L910.484 84H925.859L899.422 16.7812H884.094L857.656 84H873.031L878.797 68.1562H904.719Z" fill="white"/>
</g>
<defs>
<filter id="filter0_d" x="0.78125" y="0.375" width="955.078" height="142.547" filterUnits="userSpaceOnUse" color-interpolation-filters="sRGB">
<feFlood flood-opacity="0" result="BackgroundImageFix"/>
<feColorMatrix in="SourceAlpha" type="matrix" values="0 0 0 0 0 0 0 0 0 0 0 0 0 0 0 0 0 0 127 0" result="hardAlpha"/>
<feOffset dy="15"/>
<feGaussianBlur stdDeviation="15"/>
<feColorMatrix type="matrix" values="0 0 0 0 0.157743 0 0 0 0 0.157743 0 0 0 0 0.338021 0 0 0 0.8 0"/>
<feBlend mode="normal" in2="BackgroundImageFix" result="effect1_dropShadow"/>
<feBlend mode="normal" in="SourceGraphic" in2="effect1_dropShadow" result="shape"/>
</filter>
</defs>
</svg>
