<svg width="764" height="40" viewBox="0 0 764 40" fill="none" xmlns="http://www.w3.org/2000/svg">
<path d="M37.749 1.5918H31.4326V25.3398H22.4092V1.5918H16.1133V25.3398H7.08984V1.5918H0.773438V31H35.001V37.0908H41.3174V25.3398H37.749V1.5918ZM49.5 20.7256C49.5 19.1875 49.9922 17.8955 50.9971 16.8291C51.9814 15.7832 53.1709 15.25 54.5449 15.25C55.8984 15.25 57.0879 15.7832 58.0928 16.8291C59.0771 17.8955 59.5898 19.1875 59.5898 20.7256C59.5898 22.2637 59.0771 23.5557 58.0928 24.6016C57.0879 25.6475 55.8984 26.1602 54.5449 26.1602C53.1709 26.1602 51.9814 25.6475 50.9971 24.6016C49.9922 23.5557 49.5 22.2637 49.5 20.7256ZM65.4551 20.7051C65.4551 17.8545 64.3682 15.3525 62.1943 13.2197C60.0205 11.0869 57.4775 10.0205 54.5449 10.0205C51.5918 10.0205 49.0488 11.0869 46.875 13.2197C44.7012 15.3525 43.6143 17.8545 43.6143 20.7051C43.6143 23.5762 44.7012 26.0781 46.875 28.2109C49.0488 30.3438 51.5918 31.4102 54.5449 31.4102C57.4775 31.4102 60.0205 30.3438 62.1943 28.2109C64.3682 26.0781 65.4551 23.5762 65.4551 20.7051ZM89.4082 25.9551L94.8633 18.8184V31H100.523V10.4102H95.7041L89.4082 18.6133L83.0918 10.4102H78.2725V31H83.9326V18.8184L89.4082 25.9551ZM120.58 10.4102L111.659 21.9766V10.4102H105.999V31H110.9L119.862 19.4541V31H125.522V10.4102H120.58ZM139.591 10.4102V31H150.296C152.531 31 154.315 30.4258 155.648 29.2568C156.981 28.1084 157.658 26.6523 157.658 24.9092C157.658 24.2529 157.535 23.6377 157.289 23.0635C157.043 22.5098 156.776 22.0791 156.489 21.751C156.202 21.4229 155.854 21.1357 155.464 20.8896C155.054 20.6436 154.787 20.4795 154.644 20.418C154.479 20.377 154.377 20.3359 154.295 20.2949L154.91 19.9053C155.32 19.7002 155.751 19.2285 156.182 18.5312C156.592 17.834 156.817 17.0342 156.817 16.0908C156.817 14.5527 156.161 13.2197 154.89 12.0918C153.598 10.9844 151.937 10.4102 149.886 10.4102H139.591ZM149.886 22.1816C150.521 22.1816 151.034 22.3867 151.403 22.7764C151.772 23.166 151.978 23.6582 151.978 24.2734C151.978 24.8887 151.772 25.4014 151.403 25.791C151.034 26.2012 150.521 26.3857 149.886 26.3857H145.251V22.1816H149.886ZM151.137 16.7266C151.137 17.8545 150.562 18.4082 149.455 18.4082H145.251V15.0449H149.455C150.562 15.0449 151.137 15.6191 151.137 16.7266ZM172.998 25.9551L178.453 18.8184V31H184.113V10.4102H179.294L172.998 18.6133L166.682 10.4102H161.862V31H167.522V18.8184L172.998 25.9551ZM195.475 10.4102H189.794V31H195.475V10.4102ZM195.885 4.54492C195.885 3.60156 195.577 2.82227 194.982 2.24805C194.367 1.67383 193.547 1.38672 192.521 1.38672C191.578 1.38672 190.819 1.67383 190.245 2.24805C189.671 2.82227 189.384 3.60156 189.384 4.54492C189.384 5.48828 189.65 6.24707 190.225 6.82129C190.799 7.39551 191.558 7.68262 192.521 7.68262C193.547 7.68262 194.367 7.39551 194.982 6.82129C195.577 6.24707 195.885 5.48828 195.885 4.54492ZM199.884 20.7051C199.884 23.5762 200.971 26.0781 203.186 28.2109C205.38 30.3438 207.984 31.4102 210.999 31.4102C212.024 31.4102 213.009 31.2666 213.973 30.959C214.937 30.6514 215.716 30.3232 216.311 29.9541C216.926 29.585 217.479 29.1748 218.013 28.7031C218.546 28.2314 218.895 27.9033 219.059 27.6982C219.223 27.4932 219.325 27.3496 219.407 27.2266L216.454 24.0684L216.249 24.3555C216.085 24.54 215.859 24.7656 215.552 25.0527C215.244 25.3398 214.875 25.6064 214.444 25.873C214.034 26.1396 213.501 26.3652 212.886 26.5293C212.271 26.7139 211.655 26.7959 210.999 26.7959C210.22 26.7959 209.502 26.6523 208.846 26.3652C208.189 26.0781 207.697 25.75 207.328 25.4014C206.979 25.0527 206.672 24.6426 206.405 24.1914C206.139 23.7402 205.975 23.4326 205.893 23.248C205.831 23.084 205.79 22.9404 205.77 22.8174H214.178V18.6133H205.77L206.159 17.6494C206.405 16.9932 206.959 16.3164 207.841 15.6396C208.723 14.9629 209.789 14.6143 211.02 14.6143C211.676 14.6143 212.312 14.7168 212.927 14.9219C213.521 15.127 214.014 15.332 214.403 15.5781C214.772 15.8242 215.121 16.0908 215.449 16.4189C215.777 16.7471 215.982 16.9521 216.064 17.0752C216.146 17.1777 216.208 17.2803 216.27 17.3623L219.428 14.2246L219.12 13.7939C218.895 13.4863 218.546 13.1377 218.074 12.7275C217.582 12.3174 217.028 11.9072 216.413 11.4971C215.777 11.0869 214.978 10.7383 214.014 10.4512C213.05 10.1641 212.045 10.0205 211.02 10.0205C207.984 10.0205 205.38 11.0869 203.186 13.2197C200.971 15.3525 199.884 17.8545 199.884 20.7051ZM234.357 25.9551L239.812 18.8184V31H245.473V10.4102H240.653L234.357 18.6133L228.041 10.4102H223.222V31H228.882V18.8184L234.357 25.9551ZM255.562 20.7256C255.562 19.1875 256.055 17.8955 257.06 16.8291C258.044 15.7832 259.233 15.25 260.607 15.25C261.961 15.25 263.15 15.7832 264.155 16.8291C265.14 17.8955 265.652 19.1875 265.652 20.7256C265.652 22.2637 265.14 23.5557 264.155 24.6016C263.15 25.6475 261.961 26.1602 260.607 26.1602C259.233 26.1602 258.044 25.6475 257.06 24.6016C256.055 23.5557 255.562 22.2637 255.562 20.7256ZM271.518 20.7051C271.518 17.8545 270.431 15.3525 268.257 13.2197C266.083 11.0869 263.54 10.0205 260.607 10.0205C257.654 10.0205 255.111 11.0869 252.938 13.2197C250.764 15.3525 249.677 17.8545 249.677 20.7051C249.677 23.5762 250.764 26.0781 252.938 28.2109C255.111 30.3438 257.654 31.4102 260.607 31.4102C263.54 31.4102 266.083 30.3438 268.257 28.2109C270.431 26.0781 271.518 23.5762 271.518 20.7051ZM296.086 31.4102C298.752 31.4102 301.049 30.3848 303.018 28.3135C304.986 26.2422 305.971 23.6992 305.971 20.7051C305.971 17.7109 304.986 15.1885 303.018 13.1172C301.049 11.0459 298.752 10 296.086 10C295.327 10 294.609 10.123 293.912 10.3281C293.215 10.5332 292.641 10.7793 292.21 11.0459C291.759 11.3125 291.349 11.6201 290.979 11.9482C290.61 12.2764 290.364 12.502 290.241 12.625C290.118 12.748 290.036 12.8506 289.995 12.9326V10.4102H284.335V39.8184H289.995V28.4775L290.631 29.2363C291.041 29.7285 291.759 30.2002 292.784 30.6924C293.81 31.1846 294.896 31.4102 296.086 31.4102ZM295.04 15.0449C296.435 15.0449 297.624 15.5781 298.608 16.6445C299.593 17.7109 300.085 19.0645 300.085 20.7256C300.085 22.3662 299.593 23.7402 298.608 24.8066C297.624 25.873 296.435 26.4062 295.04 26.4062C293.646 26.4062 292.456 25.873 291.472 24.8066C290.487 23.7402 289.995 22.3662 289.995 20.7256C289.995 19.0645 290.487 17.7109 291.472 16.6445C292.456 15.5781 293.646 15.0449 295.04 15.0449ZM314.789 20.7256C314.789 19.1875 315.281 17.8955 316.286 16.8291C317.271 15.7832 318.46 15.25 319.834 15.25C321.188 15.25 322.377 15.7832 323.382 16.8291C324.366 17.8955 324.879 19.1875 324.879 20.7256C324.879 22.2637 324.366 23.5557 323.382 24.6016C322.377 25.6475 321.188 26.1602 319.834 26.1602C318.46 26.1602 317.271 25.6475 316.286 24.6016C315.281 23.5557 314.789 22.2637 314.789 20.7256ZM330.744 20.7051C330.744 17.8545 329.657 15.3525 327.483 13.2197C325.31 11.0869 322.767 10.0205 319.834 10.0205C316.881 10.0205 314.338 11.0869 312.164 13.2197C309.99 15.3525 308.903 17.8545 308.903 20.7051C308.903 23.5762 309.99 26.0781 312.164 28.2109C314.338 30.3438 316.881 31.4102 319.834 31.4102C322.767 31.4102 325.31 30.3438 327.483 28.2109C329.657 26.0781 330.744 23.5762 330.744 20.7051ZM355.743 21.1357C355.743 18.3467 354.759 15.9268 352.811 13.8965C350.862 11.8662 348.627 10.8408 346.084 10.8408C345.366 10.8408 344.669 10.9639 343.992 11.1689C343.295 11.374 342.741 11.6201 342.29 11.8867C341.839 12.1533 341.429 12.4609 341.039 12.7891C340.629 13.1172 340.383 13.3428 340.26 13.4658C340.137 13.5889 340.034 13.6914 339.993 13.7734C340.28 12.0918 340.998 10.6973 342.126 9.56934C343.233 8.44141 344.689 7.68262 346.494 7.27246C348.463 6.82129 350.165 6.34961 351.56 5.81641C352.954 5.30371 353.795 4.95508 354.082 4.77051C354.369 4.60645 354.554 4.46289 354.677 4.33984L352.175 0.135742L351.457 0.504883C350.965 0.750977 350.124 1.03809 348.894 1.40723C347.663 1.77637 346.289 2.125 344.812 2.43262C341.449 3.12988 338.845 4.68848 337.04 7.12891C335.215 9.58984 334.312 13.1992 334.312 17.9775C334.312 22.2637 335.317 25.5654 337.348 27.9033C339.378 30.2412 342.085 31.4102 345.448 31.4102C348.442 31.4102 350.903 30.4258 352.831 28.4365C354.759 26.4678 355.743 24.0273 355.743 21.1357ZM340.608 21.1357C340.608 19.5977 341.06 18.3467 342.003 17.3623C342.926 16.3779 344.074 15.8857 345.448 15.8857C346.72 15.8857 347.807 16.3779 348.709 17.3623C349.611 18.3467 350.062 19.5977 350.062 21.1357C350.062 22.6738 349.611 23.9248 348.709 24.9092C347.807 25.8936 346.72 26.3857 345.448 26.3857C344.074 26.3857 342.926 25.8936 342.003 24.9092C341.06 23.9248 340.608 22.6738 340.608 21.1357ZM374.959 10.4102L366.038 21.9766V10.4102H360.378V31H365.279L374.241 19.4541V31H379.901V10.4102H374.959ZM383.244 15.8857H389.766V31H395.426V15.8857H401.947V10.4102H383.244V15.8857ZM419.871 10.4102L410.95 21.9766V10.4102H405.29V31H410.191L419.153 19.4541V31H424.813V10.4102H419.871ZM458.405 10.4102H451.904L444.542 18.8184V10.4102H438.882V31H444.542V25.9551L447.064 23.0225L452.52 31H458.836L450.633 19.249L458.405 10.4102ZM473.314 31.4102C475.98 31.4102 478.277 30.3848 480.246 28.3135C482.215 26.2422 483.199 23.6992 483.199 20.7051C483.199 17.7109 482.215 15.1885 480.246 13.1172C478.277 11.0459 475.98 10 473.314 10C472.556 10 471.838 10.123 471.141 10.3281C470.443 10.5332 469.869 10.7793 469.438 11.0459C468.987 11.3125 468.577 11.6201 468.208 11.9482C467.839 12.2764 467.593 12.502 467.47 12.625C467.347 12.748 467.265 12.8506 467.224 12.9326V10.4102H461.563V39.8184H467.224V28.4775L467.859 29.2363C468.27 29.7285 468.987 30.2002 470.013 30.6924C471.038 31.1846 472.125 31.4102 473.314 31.4102ZM472.269 15.0449C473.663 15.0449 474.853 15.5781 475.837 16.6445C476.821 17.7109 477.313 19.0645 477.313 20.7256C477.313 22.3662 476.821 23.7402 475.837 24.8066C474.853 25.873 473.663 26.4062 472.269 26.4062C470.874 26.4062 469.685 25.873 468.7 24.8066C467.716 23.7402 467.224 22.3662 467.224 20.7256C467.224 19.0645 467.716 17.7109 468.7 16.6445C469.685 15.5781 470.874 15.0449 472.269 15.0449ZM498.744 31H504.404V18.1826C504.404 15.8447 503.584 13.8965 501.943 12.3379C500.303 10.7793 498.17 10 495.586 10C494.581 10 493.597 10.1641 492.633 10.4512C491.689 10.7383 490.91 11.0664 490.315 11.415C489.741 11.7637 489.188 12.1533 488.695 12.6045C488.203 13.0557 487.875 13.3838 487.731 13.5684C487.588 13.7529 487.465 13.8965 487.383 13.999L490.521 17.1367L490.992 16.6445C491.32 16.2754 491.854 15.9268 492.612 15.5781C493.392 15.2295 494.232 15.0449 495.155 15.0449C496.283 15.0449 497.165 15.332 497.78 15.8652C498.416 16.4189 498.724 17.1162 498.724 17.9775L492.202 19.1465C490.315 19.4951 488.818 20.2334 487.731 21.3408C486.665 22.4688 486.111 23.8633 486.111 25.5449C486.111 27.1855 486.768 28.5596 488.039 29.708C489.331 30.8564 490.992 31.4102 493.043 31.4102C494.109 31.4102 495.135 31.1846 496.119 30.7334C497.104 30.2822 497.76 29.9131 498.047 29.626C498.334 29.3389 498.56 29.1133 498.724 28.9082L498.744 31ZM494.52 26.7959C492.715 26.7959 491.792 26.0986 491.792 24.7041C491.792 23.4121 492.571 22.6328 494.109 22.3867L498.724 21.5459V22.1816C498.724 23.6377 498.354 24.7656 497.596 25.5859C496.837 26.4062 495.812 26.7959 494.52 26.7959ZM509.88 31H535.289V35.8398H540.949V25.9551H538.222V10.4102H532.562V25.9551H526.881V10.4102H521.221V25.9551H515.54V10.4102H509.88V31ZM564.267 22.5918L564.472 20.2949C564.472 17.3623 563.487 14.9219 561.539 12.9531C559.57 10.9844 557.13 10 554.197 10C551.244 10 548.722 11.0664 546.63 13.1582C544.518 15.25 543.472 17.7725 543.472 20.7051C543.472 23.6582 544.538 26.1807 546.671 28.2725C548.804 30.3643 551.367 31.4102 554.402 31.4102C555.469 31.4102 556.494 31.2871 557.499 31.041C558.504 30.7949 559.324 30.5283 559.96 30.2002C560.575 29.8721 561.17 29.5029 561.744 29.0928C562.298 28.6826 562.667 28.3955 562.831 28.2314L563.221 27.8418L560.288 24.0684L559.693 24.7041C559.324 25.1348 558.668 25.5654 557.766 25.9756C556.863 26.3857 555.879 26.5908 554.812 26.5908C553.336 26.5908 552.105 26.2217 551.142 25.4424C550.157 24.6631 549.562 23.7197 549.357 22.5918H564.267ZM554.197 14.8398C555.387 14.8398 556.412 15.209 557.232 15.9062C558.053 16.624 558.586 17.5264 558.812 18.6133H549.357C549.686 17.5059 550.28 16.583 551.121 15.8857C551.962 15.1885 552.987 14.8398 554.197 14.8398ZM591.788 16.0908C591.788 14.4502 591.05 13.0146 589.594 11.8047C588.138 10.6152 586.21 10 583.811 10C582.806 10 581.842 10.123 580.898 10.3691C579.955 10.6152 579.196 10.8818 578.643 11.1689C578.068 11.4561 577.556 11.8047 577.063 12.1943C576.571 12.584 576.264 12.8506 576.12 13.0146C575.977 13.1787 575.874 13.2812 575.833 13.3633L578.991 16.501L579.524 16.0498C579.894 15.7217 580.427 15.3936 581.124 15.0859C581.821 14.7783 582.519 14.6143 583.195 14.6143C585 14.6348 585.923 15.332 585.923 16.7266C585.923 17.3008 585.677 17.752 585.226 18.1006C584.774 18.4492 584.098 18.6133 583.195 18.6133H581.083V22.3867H583.195C585.41 22.4072 586.538 23.1045 586.538 24.499C586.538 25.1758 586.251 25.7295 585.677 26.1602C585.103 26.5908 584.282 26.7959 583.195 26.7959C582.252 26.7959 581.37 26.5908 580.529 26.1602C579.688 25.7295 579.135 25.3809 578.889 25.1348C578.643 24.8887 578.458 24.6631 578.355 24.499L575.197 27.6367L575.546 28.0674C575.73 28.3135 576.059 28.6211 576.551 28.9902C577.022 29.3594 577.576 29.708 578.212 30.0771C578.868 30.4463 579.688 30.7744 580.673 31.0205C581.657 31.2871 582.703 31.4102 583.79 31.4102C586.6 31.4102 588.773 30.8359 590.312 29.6465C591.85 28.457 592.608 27.0215 592.608 25.3398C592.608 24.5811 592.465 23.8838 592.157 23.2686C591.85 22.6533 591.521 22.1816 591.152 21.833C590.783 21.4844 590.373 21.1768 589.881 20.9307C589.409 20.6846 589.081 20.5205 588.876 20.4385C588.691 20.377 588.548 20.3359 588.425 20.3154L588.753 20.1924C588.979 20.1309 589.266 19.9873 589.614 19.7822C589.942 19.5771 590.291 19.3105 590.619 19.0234C590.947 18.7363 591.234 18.3262 591.46 17.8135C591.665 17.2803 591.788 16.7061 591.788 16.0908ZM608.174 31H613.834V18.1826C613.834 15.8447 613.014 13.8965 611.373 12.3379C609.732 10.7793 607.6 10 605.016 10C604.011 10 603.026 10.1641 602.062 10.4512C601.119 10.7383 600.34 11.0664 599.745 11.415C599.171 11.7637 598.617 12.1533 598.125 12.6045C597.633 13.0557 597.305 13.3838 597.161 13.5684C597.018 13.7529 596.895 13.8965 596.812 13.999L599.95 17.1367L600.422 16.6445C600.75 16.2754 601.283 15.9268 602.042 15.5781C602.821 15.2295 603.662 15.0449 604.585 15.0449C605.713 15.0449 606.595 15.332 607.21 15.8652C607.846 16.4189 608.153 17.1162 608.153 17.9775L601.632 19.1465C599.745 19.4951 598.248 20.2334 597.161 21.3408C596.095 22.4688 595.541 23.8633 595.541 25.5449C595.541 27.1855 596.197 28.5596 597.469 29.708C598.761 30.8564 600.422 31.4102 602.473 31.4102C603.539 31.4102 604.564 31.1846 605.549 30.7334C606.533 30.2822 607.189 29.9131 607.477 29.626C607.764 29.3389 607.989 29.1133 608.153 28.9082L608.174 31ZM603.949 26.7959C602.145 26.7959 601.222 26.0986 601.222 24.7041C601.222 23.4121 602.001 22.6328 603.539 22.3867L608.153 21.5459V22.1816C608.153 23.6377 607.784 24.7656 607.025 25.5859C606.267 26.4062 605.241 26.7959 603.949 26.7959ZM633.809 10.4102H628.128V31H633.809V10.4102ZM634.219 4.54492C634.219 3.60156 633.911 2.82227 633.316 2.24805C632.701 1.67383 631.881 1.38672 630.855 1.38672C629.912 1.38672 629.153 1.67383 628.579 2.24805C628.005 2.82227 627.718 3.60156 627.718 4.54492C627.718 5.48828 627.984 6.24707 628.559 6.82129C629.133 7.39551 629.892 7.68262 630.855 7.68262C631.881 7.68262 632.701 7.39551 633.316 6.82129C633.911 6.24707 634.219 5.48828 634.219 4.54492ZM645.149 23.2275H653.127V31H658.808V10.4102H653.127V18.1826H645.149V10.4102H639.489V31H645.149V23.2275ZM664.263 31H692.604V10.4102H686.944V25.9551H681.264V10.4102H675.604V25.9551H669.923V10.4102H664.263V31ZM712.436 10.4102L703.515 21.9766V10.4102H697.854V31H702.756L711.718 19.4541V31H717.378V10.4102H712.436ZM730.811 24.499L735.22 31H741.311L734.379 20.5L740.9 10.4102H734.584L730.811 16.501L727.037 10.4102H720.721L727.242 20.5L720.311 31H726.401L730.811 24.499ZM749.493 20.7051C749.493 21.2793 749.616 21.8945 749.903 22.5918H755.584C755.584 21.6279 755.83 20.7461 756.363 19.9258C756.876 19.1055 757.512 18.4082 758.25 17.793C758.988 17.1982 759.727 16.5625 760.465 15.8857C761.203 15.1885 761.839 14.2861 762.352 13.1787C762.864 12.0713 763.131 10.7998 763.131 9.38477C763.131 7.08789 762.188 5.09863 760.321 3.45801C758.435 1.81738 756.015 0.99707 753.062 0.99707C751.482 0.99707 750.047 1.24316 748.755 1.75586C747.442 2.26855 746.438 2.84277 745.72 3.47852C745.002 4.11426 744.366 4.83203 743.833 5.65234C743.279 6.45215 742.951 7.02637 742.828 7.35449C742.705 7.68262 742.603 7.92871 742.562 8.13379L747.812 10.4307L748.181 9.61035C748.427 9.03613 748.98 8.48242 749.821 7.92871C750.662 7.35449 751.667 7.08789 752.856 7.08789C753.964 7.08789 754.887 7.39551 755.584 8.01074C756.281 8.62598 756.63 9.36426 756.63 10.2256C756.63 11.0459 756.384 11.7637 755.892 12.4199C755.399 13.0557 754.805 13.6299 754.107 14.1221C753.41 14.6143 752.713 15.1064 752.016 15.6396C751.318 16.1729 750.724 16.8701 750.231 17.7314C749.739 18.5928 749.493 19.5977 749.493 20.7051ZM749.062 28.2725C749.062 29.1133 749.391 29.8516 750.047 30.4873C750.703 31.1025 751.503 31.4307 752.426 31.4307C753.349 31.4307 754.148 31.1025 754.805 30.4873C755.461 29.8516 755.789 29.1133 755.789 28.2725C755.789 27.4316 755.461 26.6934 754.805 26.0781C754.148 25.4424 753.349 25.1348 752.426 25.1348C751.503 25.1348 750.703 25.4424 750.047 26.0781C749.391 26.6934 749.062 27.4316 749.062 28.2725Z" fill="url(#paint0_linear)"/>
<defs>
<linearGradient id="paint0_linear" x1="3" y1="4" x2="765" y2="30.4233" gradientUnits="userSpaceOnUse">
<stop stop-color="#F0145A"/>
<stop offset="1" stop-color="#EF8080"/>
</linearGradient>
</defs>
</svg>
